<?xml version="1.0" encoding="UTF-8" standalone="no"?>
<!-- Uploaded to: SVG Repo, www.svgrepo.com, Transformed by: SVG Repo Mixer Tools -->

<svg
   width="20"
   height="20"
   viewBox="0 -4 28 20.02"
   fill="#fff"
   version="1.1"
   id="svg8"
   sodipodi:docname="us-flag.svg"
   inkscape:version="1.3.2 (091e20e, 2023-11-25, custom)"
   xmlns:inkscape="http://www.inkscape.org/namespaces/inkscape"
   xmlns:sodipodi="http://sodipodi.sourceforge.net/DTD/sodipodi-0.dtd"
   xmlns="http://www.w3.org/2000/svg"
   xmlns:svg="http://www.w3.org/2000/svg">
  <defs
     id="defs9" />
  <sodipodi:namedview
     id="namedview8"
     pagecolor="#ffffff"
     bordercolor="#000000"
     borderopacity="0.25"
     inkscape:showpageshadow="2"
     inkscape:pageopacity="0.0"
     inkscape:pagecheckerboard="0"
     inkscape:deskcolor="#d1d1d1"
     inkscape:zoom="1.01625"
     inkscape:cx="400"
     inkscape:cy="400"
     inkscape:window-width="1920"
     inkscape:window-height="1009"
     inkscape:window-x="1912"
     inkscape:window-y="-8"
     inkscape:window-maximized="1"
     inkscape:current-layer="svg8" />
  <g
     id="SVGRepo_bgCarrier"
     stroke-width="0" />
  <g
     id="SVGRepo_tracerCarrier"
     stroke-linecap="round"
     stroke-linejoin="round" />
  <g
     id="SVGRepo_iconCarrier"
     transform="translate(0,-3.9606396)">
    <g
       clip-path="url(#clip0_503_3486)"
       id="g5">
      <rect
         width="28"
         height="20"
         rx="2"
         fill="none"
         id="rect1"
         x="0"
         y="0" />
      <mask
         id="mask0_503_3486"
         maskUnits="userSpaceOnUse"
         x="0"
         y="0"
         width="28"
         height="20">
        <rect
           width="28"
           height="20"
           rx="2"
           fill="#ffffff"
           id="rect2"
           x="0"
           y="0" />
      </mask>
      <g
         mask="url(#mask0_503_3486)"
         id="g4">
        <path
           fill-rule="evenodd"
           clip-rule="evenodd"
           d="M 28,0 H 0 v 1.33333 h 28 z m 0,2.66667 H 0 V 4 H 28 Z M 0,5.33333 H 28 V 6.66667 H 0 Z M 28,8 H 0 V 9.33333 H 28 Z M 0,10.6667 H 28 V 12 H 0 Z m 28,2.6666 H 0 v 1.3334 H 28 Z M 0,16 h 28 v 1.3333 H 0 Z m 28,2.6667 H 0 V 20 h 28 z"
           fill="#d02f44"
           id="path2" />
        <rect
           width="12"
           height="9.3333302"
           fill="#46467f"
           id="rect3"
           x="0"
           y="0" />
        <g
           filter="url(#filter0_d_503_3486)"
           id="g3">
          <path
             fill-rule="evenodd"
             clip-rule="evenodd"
             d="m 2.66665,1.99999 c 0,0.36819 -0.29848,0.66667 -0.66667,0.66667 -0.36819,0 -0.66667,-0.29848 -0.66667,-0.66667 0,-0.36818 0.29848,-0.66666 0.66667,-0.66666 0.36819,0 0.66667,0.29848 0.66667,0.66666 z m 2.66666,0 c 0,0.36819 -0.29847,0.66667 -0.66666,0.66667 -0.36819,0 -0.66667,-0.29848 -0.66667,-0.66667 0,-0.36818 0.29848,-0.66666 0.66667,-0.66666 0.36819,0 0.66666,0.29848 0.66666,0.66666 z m 2,0.66667 c 0.36819,0 0.66667,-0.29848 0.66667,-0.66667 0,-0.36818 -0.29848,-0.66666 -0.66667,-0.66666 -0.36819,0 -0.66666,0.29848 -0.66666,0.66666 0,0.36819 0.29847,0.66667 0.66666,0.66667 z M 10.6666,1.99999 c 0,0.36819 -0.2984,0.66667 -0.66662,0.66667 -0.36819,0 -0.66667,-0.29848 -0.66667,-0.66667 0,-0.36818 0.29848,-0.66666 0.66667,-0.66666 0.36822,0 0.66662,0.29848 0.66662,0.66666 z m -7.33329,2 c 0.36819,0 0.66667,-0.29847 0.66667,-0.66666 0,-0.36819 -0.29848,-0.66667 -0.66667,-0.66667 -0.36819,0 -0.66666,0.29848 -0.66666,0.66667 0,0.36819 0.29847,0.66666 0.66666,0.66666 z M 6.66665,3.33333 c 0,0.36819 -0.29848,0.66666 -0.66667,0.66666 -0.36819,0 -0.66667,-0.29847 -0.66667,-0.66666 0,-0.36819 0.29848,-0.66667 0.66667,-0.66667 0.36819,0 0.66667,0.29848 0.66667,0.66667 z m 2,0.66666 c 0.36819,0 0.66666,-0.29847 0.66666,-0.66666 0,-0.36819 -0.29847,-0.66667 -0.66666,-0.66667 -0.36819,0 -0.66667,0.29848 -0.66667,0.66667 0,0.36819 0.29848,0.66666 0.66667,0.66666 z m 1.99995,0.66667 c 0,0.36819 -0.2984,0.66667 -0.66662,0.66667 -0.36819,0 -0.66667,-0.29848 -0.66667,-0.66667 0,-0.36819 0.29848,-0.66667 0.66667,-0.66667 0.36822,0 0.66662,0.29848 0.66662,0.66667 z M 7.33331,5.33333 c 0.36819,0 0.66667,-0.29848 0.66667,-0.66667 0,-0.36819 -0.29848,-0.66667 -0.66667,-0.66667 -0.36819,0 -0.66666,0.29848 -0.66666,0.66667 0,0.36819 0.29847,0.66667 0.66666,0.66667 z m -2,-0.66667 c 0,0.36819 -0.29847,0.66667 -0.66666,0.66667 -0.36819,0 -0.66667,-0.29848 -0.66667,-0.66667 0,-0.36819 0.29848,-0.66667 0.66667,-0.66667 0.36819,0 0.66666,0.29848 0.66666,0.66667 z M 1.99998,5.33333 c 0.36819,0 0.66667,-0.29848 0.66667,-0.66667 0,-0.36819 -0.29848,-0.66667 -0.66667,-0.66667 -0.36819,0 -0.66667,0.29848 -0.66667,0.66667 0,0.36819 0.29848,0.66667 0.66667,0.66667 z m 2,0.66666 c 0,0.3682 -0.29848,0.66667 -0.66667,0.66667 -0.36819,0 -0.66666,-0.29847 -0.66666,-0.66667 0,-0.36819 0.29847,-0.66666 0.66666,-0.66666 0.36819,0 0.66667,0.29847 0.66667,0.66666 z m 2,0.66667 c 0.36819,0 0.66667,-0.29847 0.66667,-0.66667 0,-0.36819 -0.29848,-0.66666 -0.66667,-0.66666 -0.36819,0 -0.66667,0.29847 -0.66667,0.66666 0,0.3682 0.29848,0.66667 0.66667,0.66667 z M 9.33331,5.99999 c 0,0.3682 -0.29847,0.66667 -0.66666,0.66667 -0.36819,0 -0.66667,-0.29847 -0.66667,-0.66667 0,-0.36819 0.29848,-0.66666 0.66667,-0.66666 0.36819,0 0.66666,0.29847 0.66666,0.66666 z M 9.99998,8 c 0.36822,0 0.66662,-0.29848 0.66662,-0.66667 0,-0.36819 -0.2984,-0.66667 -0.66662,-0.66667 -0.36819,0 -0.66667,0.29848 -0.66667,0.66667 C 9.33331,7.70152 9.63179,8 9.99998,8 Z m -2,-0.66667 C 7.99998,7.70152 7.7015,8 7.33331,8 6.96512,8 6.66665,7.70152 6.66665,7.33333 c 0,-0.36819 0.29847,-0.66667 0.66666,-0.66667 0.36819,0 0.66667,0.29848 0.66667,0.66667 z M 4.66665,8 C 5.03484,8 5.33331,7.70152 5.33331,7.33333 5.33331,6.96514 5.03484,6.66666 4.66665,6.66666 4.29846,6.66666 3.99998,6.96514 3.99998,7.33333 3.99998,7.70152 4.29846,8 4.66665,8 Z m -2,-0.66667 C 2.66665,7.70152 2.36817,8 1.99998,8 1.63179,8 1.33331,7.70152 1.33331,7.33333 c 0,-0.36819 0.29848,-0.66667 0.66667,-0.66667 0.36819,0 0.66667,0.29848 0.66667,0.66667 z"
             fill="url(#paint0_linear_503_3486)"
             id="path3"
             style="fill:url(#paint0_linear_503_3486)" />
        </g>
      </g>
    </g>
    <defs
       id="defs8">
      <filter
         id="filter0_d_503_3486"
         x="1.33331"
         y="1.33333"
         width="9.3333101"
         height="7.6666698"
         filterUnits="userSpaceOnUse"
         color-interpolation-filters="sRGB">
        <feFlood
           flood-opacity="0"
           result="BackgroundImageFix"
           id="feFlood5" />
        <feColorMatrix
           in="SourceAlpha"
           type="matrix"
           values="0 0 0 0 0 0 0 0 0 0 0 0 0 0 0 0 0 0 127 0"
           result="hardAlpha"
           id="feColorMatrix5" />
        <feOffset
           dy="1"
           id="feOffset5" />
        <feColorMatrix
           type="matrix"
           values="0 0 0 0 0 0 0 0 0 0 0 0 0 0 0 0 0 0 0.06 0"
           id="feColorMatrix6" />
        <feBlend
           mode="normal"
           in2="BackgroundImageFix"
           result="effect1_dropShadow_503_3486"
           id="feBlend6" />
        <feBlend
           mode="normal"
           in="SourceGraphic"
           in2="effect1_dropShadow_503_3486"
           result="shape"
           id="feBlend7" />
      </filter>
      <linearGradient
         id="paint0_linear_503_3486"
         x1="1.33331"
         y1="1.33333"
         x2="1.33331"
         y2="7.99999"
         gradientUnits="userSpaceOnUse">
        <stop
           stop-color="white"
           id="stop7" />
        <stop
           offset="1"
           stop-color="#F0F0F0"
           id="stop8" />
      </linearGradient>
      <clipPath
         id="clip0_503_3486">
        <rect
           width="28"
           height="20"
           rx="2"
           fill="#ffffff"
           id="rect8"
           x="0"
           y="0" />
      </clipPath>
    </defs>
  </g>
</svg>
